<svg width="100%" height="100%" id="svg" viewBox="0 0 1440 390" xmlns="http://www.w3.org/2000/svg" class="transition duration-300 ease-in-out delay-150"><defs><linearGradient id="gradient" x1="94%" y1="27%" x2="6%" y2="73%"><stop offset="5%" stop-color="#6b4af0"></stop><stop offset="95%" stop-color="#4a6bf0"></stop></linearGradient></defs><path d="M 0,400 L 0,100 C 55.66153846153847,121.9846153846154 111.32307692307694,143.9692307692308 200,138 C 288.67692307692306,132.0307692307692 410.3692307692306,98.10769230769229 503,73 C 595.6307692307694,47.89230769230771 659.2,31.60000000000001 724,55 C 788.8,78.39999999999999 854.8307692307691,141.49230769230772 937,146 C 1019.1692307692309,150.50769230769228 1117.4769230769232,96.43076923076922 1204,79 C 1290.5230769230768,61.56923076923078 1365.2615384615383,80.78461538461539 1440,100 L 1440,400 L 0,400 Z" stroke="none" stroke-width="0" fill="url(#gradient)" fill-opacity="0.53" class="transition-all duration-300 ease-in-out delay-150 path-0"></path><defs><linearGradient id="gradient" x1="94%" y1="27%" x2="6%" y2="73%"><stop offset="5%" stop-color="#6b4af0"></stop><stop offset="95%" stop-color="#4a6bf0"></stop></linearGradient></defs><path d="M 0,400 L 0,233 C 95.76666666666668,214.25128205128206 191.53333333333336,195.50256410256412 268,207 C 344.46666666666664,218.49743589743588 401.6333333333333,260.2410256410256 473,272 C 544.3666666666667,283.7589743589744 629.9333333333333,265.53333333333336 703,244 C 776.0666666666667,222.46666666666664 836.6333333333337,197.625641025641 927,205 C 1017.3666666666663,212.374358974359 1137.533333333333,251.96410256410257 1228,262 C 1318.466666666667,272.0358974358974 1379.2333333333336,252.5179487179487 1440,233 L 1440,400 L 0,400 Z" stroke="none" stroke-width="0" fill="url(#gradient)" fill-opacity="1" class="transition-all duration-300 ease-in-out delay-150 path-1"></path></svg>