<?xml version="1.0" encoding="UTF-8" standalone="no"?><!-- Generator: Gravit.io --><svg xmlns="http://www.w3.org/2000/svg" xmlns:xlink="http://www.w3.org/1999/xlink" style="isolation:isolate" viewBox="0 0 500 500" width="500pt" height="500pt"><defs><clipPath id="_clipPath_cTgNGPhPOjGI0ilo8xUbYLgsXV0HDXim"><rect width="500" height="500"/></clipPath></defs><g clip-path="url(#_clipPath_cTgNGPhPOjGI0ilo8xUbYLgsXV0HDXim)"><linearGradient id="_lgradient_0" x1="0.22565852618108106" y1="0.39337046053289737" x2="0.9785724393881678" y2="-0.3594644397753326" gradientTransform="matrix(244.264,0,0,357.35,127.86,127.348)" gradientUnits="userSpaceOnUse"><stop offset="0%" stop-opacity="0" style="stop-color:rgb(107,74,240)"/><stop offset="100%" stop-opacity="1" style="stop-color:rgb(107,74,240)"/></linearGradient><linearGradient id="_lgradient_1" x1="-0.007785005865415862" y1="0.22693167039050244" x2="1.0126906259997854" y2="0.22693167039050244"><stop offset="0%" stop-opacity="1" style="stop-color:rgb(255,255,255)"/><stop offset="100%" stop-opacity="1" style="stop-color:rgb(0,0,0)"/></linearGradient><path d=" M 127.86 379.491 L 251.021 484.698 L 372.124 127.348 L 127.86 379.491 L 127.86 379.491 Z " fill="url(#_lgradient_0)" vector-effect="non-scaling-stroke" stroke-width="1" stroke="url(#_lgradient_1)" stroke-linejoin="miter" stroke-linecap="butt" stroke-miterlimit="10"/><linearGradient id="_lgradient_2" x1="0.2652912368448481" y1="0.734670487106017" x2="0.9515815811313857" y2="0.04838014281947978" gradientTransform="matrix(499.989,0,0,499.988,0.011,0)" gradientUnits="userSpaceOnUse"><stop offset="0%" stop-opacity="1" style="stop-color:rgb(15,29,64)"/><stop offset="10%" stop-opacity="1" style="stop-color:rgb(33,37,98)"/><stop offset="25%" stop-opacity="1" style="stop-color:rgb(55,48,141)"/><stop offset="40%" stop-opacity="1" style="stop-color:rgb(74,57,177)"/><stop offset="54%" stop-opacity="1" style="stop-color:rgb(88,64,204)"/><stop offset="69%" stop-opacity="1" style="stop-color:rgb(98,69,224)"/><stop offset="85%" stop-opacity="1" style="stop-color:rgb(104,73,236)"/><stop offset="100%" stop-opacity="1" style="stop-color:rgb(107,74,240)"/></linearGradient><linearGradient id="_lgradient_3" x1="0" y1="0.5" x2="1" y2="0.5"><stop offset="100%" stop-opacity="1" style="stop-color:rgb(255,255,255)"/><stop offset="100%" stop-opacity="1" style="stop-color:rgb(254,254,254)"/></linearGradient><path d=" M 500 82.65 L 500 417.312 C 500 462.974 462.958 499.988 417.372 499.988 L 293.195 499.988 C 250.37 499.988 221.664 455.967 238.96 416.791 L 335.16 198.589 C 343.965 178.636 323.621 158.293 303.667 167.097 L 83.212 264.307 C 44.034 281.577 0.011 252.898 0.011 210.076 L 0.011 82.624 C 0.011 36.988 37.001 0 82.639 0 L 417.372 0 C 463.01 0 500 36.988 500 82.624 L 500 82.65 Z " fill="url(#_lgradient_2)" vector-effect="non-scaling-stroke" stroke-width="1" stroke="url(#_lgradient_3)" stroke-linejoin="miter" stroke-linecap="butt" stroke-miterlimit="10"/><linearGradient id="_lgradient_4" x1="0" y1="0.5" x2="1" y2="0.5"><stop offset="100%" stop-opacity="1" style="stop-color:rgb(255,255,255)"/><stop offset="100%" stop-opacity="1" style="stop-color:rgb(250,250,250)"/></linearGradient><path d=" M 129.944 430.414 C 130.543 440.078 128.668 450.028 123.562 459.562 C 120.384 465.501 116.06 471.023 110.329 474.565 C 105.354 477.639 99.597 479.124 93.944 480.582 C 88.604 481.937 40.699 492.382 13.686 499.623 C 5.663 501.759 -1.709 494.466 0.349 486.417 L 20.876 405.461 C 22.569 398.74 25.539 392.332 29.993 387.045 C 66.384 343.779 127.027 383.893 129.944 430.414 Z " fill="rgb(15,29,64)" vector-effect="non-scaling-stroke" stroke-width="1" stroke="url(#_lgradient_4)" stroke-linejoin="miter" stroke-linecap="butt" stroke-miterlimit="10"/></g></svg>